<svg width="33" height="33" viewBox="0 0 33 33" fill="none" xmlns="http://www.w3.org/2000/svg">
<g clip-path="url(#clip0_47260_88)">
<mask id="mask0_47260_88" style="mask-type:luminance" maskUnits="userSpaceOnUse" x="0" y="0" width="33" height="33">
<path d="M33 0H0V33H33V0Z" fill="white"/>
</mask>
<g mask="url(#mask0_47260_88)">
<path fill-rule="evenodd" clip-rule="evenodd" d="M17.6786 0H15.3214V10.4368L11.4117 0.75996L9.22624 1.64296L13.2372 11.5704L5.66612 3.99935L3.99937 5.66612L11.2559 12.9227L1.85198 8.81399L0.908257 10.974L10.8587 15.3214H0V17.6786H10.8587L0.908261 22.026L1.85198 24.186L11.2559 20.0774L3.99937 27.3339L5.66612 29.0006L13.2372 21.4295L9.22624 31.3571L11.4117 32.24L15.3214 22.5633V33H17.6786V22.5633L21.5883 32.24L23.7737 31.3571L19.7629 21.4295L27.3339 29.0006L29.0006 27.3339L21.744 20.0774L31.148 24.186L32.0917 22.026L22.1414 17.6786H33V15.3214H22.1412L32.0917 10.974L31.148 8.81399L21.744 12.9227L29.0006 5.6661L27.3339 3.99935L19.7629 11.5704L23.7737 1.64296L21.5883 0.75996L17.6786 10.4368V0Z" fill="#1C65DA"/>
</g>
</g>
<defs>
<clipPath id="clip0_47260_88">
<rect width="33" height="33" fill="white"/>
</clipPath>
</defs>
</svg>
